<svg enable-background="new 0 0 190 32" viewBox="0 0 190 32" xmlns="http://www.w3.org/2000/svg"><g fill="#b4b1aa"><path clip-rule="evenodd" d="m77.6 18.2c0-1.2-.5-2.3-1.3-3.2s-2-1.3-3.2-1.3v-3.2c1.7.2 3.3.9 4.4 2.2v-1.8h3.6v14.6h-3.5v-1.8c-1.2 1.2-2.7 2-4.4 2.2v-3.2c1.2 0 2.3-.5 3.2-1.3.8-.9 1.3-2.1 1.2-3.2zm-4.4-4.6c-1.2 0-2.3.5-3.2 1.4-1.7 1.8-1.7 4.6 0 6.4.8.9 2 1.3 3.2 1.3v3.2h-.4c-4.2 0-7.7-3.4-7.7-7.6v-.1c0-4.2 3.4-7.7 7.6-7.7h.2.4z" fill-rule="evenodd"/><path clip-rule="evenodd" d="m84 25.5h3.6v-19h-3.6z" fill-rule="evenodd"/><path clip-rule="evenodd" d="m105.2 18.1c0-2.1-.8-4-2.3-5.5s-3.5-2.3-5.6-2.2v3c1 0 1.9.3 2.7.9.7.6 1.2 1.4 1.3 2.3h-4v3h7.6c.2-.4.3-1 .3-1.5zm-7.9 7.8c1.6 0 3.1-.4 4.4-1.3 1.3-.8 2.2-2.1 2.8-3.5h-3.9c-.3.5-.8.9-1.3 1.2-.6.3-1.2.5-1.9.5v3.1zm0-15.5c-2.1 0-4.1.8-5.6 2.2s-2.4 3.4-2.3 5.5c0 2.1.8 4.1 2.3 5.5 1.5 1.5 3.5 2.3 5.6 2.2v-3.1c-1 0-1.9-.3-2.6-.9-.7-.5-1.2-1.3-1.5-2.2h4.1v-3h-4.1c.4-1.9 2.1-3.3 4.1-3.3z" fill-rule="evenodd"/><path clip-rule="evenodd" d="m117.2 19.7h5.3c-.2.4-.4.7-.7 1-2.3 2.5-6.2 2.7-8.7.3-.1-.1-.2-.2-.3-.3-1.2-1.3-1.9-3-1.9-4.7 0-1.8.7-3.4 1.9-4.7 2.1-2.2 5.5-2.6 8-.9 1 .7 1.9 1.7 2.4 2.8h3.7c-.5-2.1-1.7-3.9-3.4-5.2-1.8-1.3-3.9-2-6.1-2-2.7 0-5.3 1-7.2 2.9-1.9 1.8-3 4.3-3 7s1.1 5.2 3 7c4 3.8 10.3 3.8 14.4 0 1.7-1.7 2.6-3.9 2.6-6.3h-9.8z" fill-rule="evenodd"/><path clip-rule="evenodd" d="m43.5 16c0 2.7 1.1 5.2 3 7 1.9 1.9 4.5 2.9 7.2 2.9 2.2 0 4.3-.7 6.1-2 1.7-1.2 3-3.1 3.4-5.2h-3.7c-.5 1.1-1.3 2.1-2.4 2.8-2.5 1.7-5.9 1.3-8-.9-1.2-1.2-1.9-2.9-1.9-4.6 0-1.8.7-3.4 1.9-4.7 2.1-2.2 5.5-2.6 8-.9 1 .7 1.9 1.7 2.4 2.8h3.7c-.5-2.1-1.7-3.9-3.4-5.2-1.8-1.3-3.9-2-6.1-2-2.7 0-5.3 1-7.2 2.9-2 1.9-3.1 4.5-3 7.1z" fill-rule="evenodd"/><path clip-rule="evenodd" d="m181 13.6c1.2 0 2.3.5 3.1 1.4 1.8 1.8 1.8 4.6 0 6.4-.8.8-2 1.3-3.1 1.3v3.2h.4c2.1 0 4-.8 5.5-2.2s2.3-3.4 2.3-5.5-.8-4.1-2.3-5.5c-1.5-1.5-3.4-2.3-5.5-2.2h-.4zm-4.5 4.6c0-1.2.5-2.3 1.3-3.2s2-1.4 3.2-1.3v-3.2c-1.7.2-3.3.9-4.4 2.2v-1.8h-3.6v18.9h3.6v-6.1c1.2 1.2 2.7 2 4.4 2.2v-3.2c-1.2 0-2.3-.5-3.2-1.3-.8-.9-1.3-2.1-1.3-3.2z" fill-rule="evenodd"/><path clip-rule="evenodd" d="m129.3 25.5h3.6v-8.4c0-.8.4-1.6 1-2.1.6-.6 1.4-.9 2.2-.9h.9v-3.6h-.4c-1.6 0-3 1-3.7 2.4h-.1v-2h-3.6v14.6z" fill-rule="evenodd"/><path clip-rule="evenodd" d="m166.6 10.9v8.6c0 .9-.3 1.7-.9 2.3-1.2 1.2-3.2 1.3-4.5.1 0 0 0 0-.1-.1-.6-.6-.9-1.4-.9-2.3v-8.6h-3.6v8.8c-.1 1.6.5 3.2 1.6 4.5 1 1.2 2.5 1.8 4.1 1.7 1.3 0 3.4-.4 4.2-2.2h.1v1.8h3.6v-14.6z" fill-rule="evenodd"/><path clip-rule="evenodd" d="m137.9 18.2c0 4.7 3.8 7.7 8.2 7.7s8.2-3.1 8.2-7.7-3.8-7.7-8.2-7.7-8.2 3-8.2 7.7zm12.7 0c0 1.2-.5 2.4-1.3 3.2-1.7 1.7-4.5 1.8-6.3.1 0 0 0 0-.1-.1-1.7-1.8-1.7-4.6 0-6.3 1.7-1.7 4.5-1.8 6.3 0 .9.7 1.4 1.9 1.4 3.1z" fill-rule="evenodd"/><path d="m129.3.2h.6v4.6h-.6z"/><g clip-rule="evenodd" fill-rule="evenodd"><path d="m131.6 3c-.1-.5.3-.9.8-1h.1c.5 0 .8.3.8.9v1.9h.6v-2c0-.7-.3-1.3-1.2-1.3-.5 0-.9.2-1.1.7v-.6h-.6v3.2h.6z"/><path d="m136.4 4.8 1.3-3.2h-.6l-1 2.5-1-2.5h-.6l1.3 3.2z"/><path d="m140.7 3.7c-.1.5-.5.8-1 .7-.6 0-1-.5-1-1.1h2.6v-.2c.1-.8-.5-1.5-1.3-1.6-.1 0-.1 0-.2 0-.9 0-1.6.7-1.6 1.6v.1c0 .9.6 1.6 1.5 1.6h.2c.7 0 1.4-.5 1.5-1.2zm-2-.7c0-.6.4-1 1-1 .5 0 .9.4.9.9v.1z"/><path d="m141.9 3.7c.1.7.7 1.2 1.4 1.2h.1c.8 0 1.3-.3 1.3-1s-.4-.8-1-.9l-.6-.1c-.3-.1-.5-.2-.5-.5s.3-.5.7-.5c.4-.1.8.2.9.7h.5c-.1-.7-.6-1.1-1.4-1.1s-1.2.4-1.2 1 .4.8.9.9l.5.1c.4.1.6.2.6.5s-.3.5-.7.5c-.5.1-.9-.2-1-.7v-.1z"/><path d="m145.6 4c0 .6.3.8.8.8.3 0 .6-.1.8-.3v-.3c-.2.1-.4.2-.6.2-.3 0-.4-.1-.4-.4v-2h.9v-.4h-.9v-.9h-.3l-.1.4c-.1.3-.1.5-.4.5h-.2v.4h.5v2z"/><path d="m150.6 2.2c-.1-.4-.5-.7-1-.7-.4 0-.8.3-1 .7v-.6h-.6v3.2h.6v-1.8c-.1-.5.3-.9.7-1h.1c.5 0 .7.3.7.9v1.9h.6v-1.8c-.1-.5.3-.9.7-1h.1c.5 0 .7.3.7.9v1.9h.6v-2c0-.7-.3-1.3-1.1-1.3-.4 0-.9.3-1.1.7z"/><path d="m156.3 3.7c-.1.5-.5.8-1 .7-.6 0-1-.5-1-1.1h2.5v-.2c.1-.8-.5-1.5-1.3-1.6-.1 0-.1 0-.2 0-.9 0-1.6.7-1.6 1.6v.1c0 .9.6 1.6 1.5 1.6h.2c.7 0 1.4-.5 1.5-1.2zm-2-.7c0-.6.4-1 1-1 .5 0 .9.4.9.9v.1z"/><path d="m158.3 3c-.1-.5.3-.9.8-1h.1c.5 0 .8.3.8.9v1.9h.6v-2c0-.7-.3-1.3-1.2-1.3-.5 0-.9.2-1.1.7v-.6h-.6v3.2h.6z"/><path d="m161.6 4c0 .6.3.8.8.8.3 0 .6-.1.8-.3v-.3c-.2.1-.4.2-.6.2-.3 0-.4-.1-.4-.4v-2h.9v-.4h-.9v-.9h-.4l-.1.4c-.1.3-.1.5-.4.5h-.2v.4h.5z"/><path d="m166.2 4.8v-2.1h2.7v2.1h.6v-4.6h-.6v2h-2.7v-2h-.6v4.6z"/><path d="m171 3.2c0-.7.4-1.2 1-1.2s1 .5 1 1.2-.4 1.2-1 1.2-1-.5-1-1.2zm2.6 0c0-.9-.7-1.6-1.6-1.6s-1.6.7-1.6 1.6c0 .9.7 1.6 1.6 1.6s1.6-.7 1.6-1.6z"/></g><path d="m174.5.2h.6v4.6h-.6z"/><path clip-rule="evenodd" d="m178.6 3.3c.1.5-.3 1-.9 1.1h-.1c-.6 0-1-.5-1-1.2s.4-1.2 1-1.2 1 .4 1 1v.1zm0 1.5h.6v-4.6h-.6v2.1c-.2-.5-.6-.8-1.1-.8-.8 0-1.5.7-1.5 1.5v.2c-.1.8.5 1.6 1.3 1.7h.2c.5 0 1-.3 1.1-.8z" fill-rule="evenodd"/><path clip-rule="evenodd" d="m180.2 1.6v3.2h.6v-3.2zm0-.7h.6v-.7h-.6z" fill-rule="evenodd"/><path clip-rule="evenodd" d="m182.5 3c-.1-.5.3-.9.8-1h.1c.5 0 .8.3.8.9v1.9h.6v-2c0-.7-.3-1.3-1.2-1.3-.5 0-.9.2-1.1.7v-.6h-.6v3.2h.6z" fill-rule="evenodd"/><path clip-rule="evenodd" d="m188.3 2.6c0-.2-.1-.4-.2-.5.2-.1.4-.1.6-.1v-.6c-.3 0-.6.2-.8.4-.3-.2-.6-.3-1-.3-.8 0-1.3.4-1.3 1.1 0 .3.2.6.4.8-.3.1-.5.3-.5.6s.2.5.4.6c-.4 0-.6.3-.7.7 0 .6.7.9 1.6.9s1.8-.3 1.8-1.1c0-.5-.4-.9-1.1-.9h-1.2c-.3 0-.4-.1-.4-.3 0-.1.1-.2.2-.3.2.1.5.1.7.1 1 0 1.5-.4 1.5-1.1zm-2.4 2.5c0-.3.3-.5.6-.5h1c.4 0 .6.1.6.4 0 .5-.5.6-1.2.6s-1-.1-1-.5zm1.8-2.5c0 .4-.4.7-.8.6-.3 0-.6-.3-.6-.6 0-.4.4-.7.8-.6.3 0 .6.3.6.6z" fill-rule="evenodd"/><path clip-rule="evenodd" d="m18 31.5 8-3.3c1.2-.5 2.1-1.6 2.2-3l4.2-25.1h-2.6c-1 0-2 .4-2.7 1.2l-7.6 8.4c-.9.9-1.5 2.1-1.6 3.3l-.2 14c0 .6-.5 1.1-1.1 1.1s-1.1-.5-1.1-1.1l-.2-14c-.1-1.3-.6-2.5-1.6-3.3l-7.6-8.3c-.7-.8-1.7-1.2-2.7-1.2h-2.6l4.1 25.1c.2 1.3 1 2.4 2.2 3l8 3.3c1 .3 2 .3 2.9-.1z" fill-rule="evenodd"/></g></svg>